<svg class="svg_container" xmlns="http://www.w3.org/2000/svg" xmlns:xlink="http://www.w3.org/1999/xlink" version="1.1" x="0px" y="0px" width="40px" height="40px" viewBox="0 0 100 100" enable-background="new 0 0 100 100" xml:space="preserve">
<g id="Captions">
</g>
<g id="Your_Icon">
	<path class="svg_icon" fill-rule="evenodd" clip-rule="evenodd" d="M82.64,91.498L53.633,48.559l5.971-11.093h7.677c0.562,0,1.134-0.571,1.705-1.143   l14.226-24.732c1.126-2.562-1.998-3.703-3.133-1.713L67.28,30.646c-1.705,2.562-5.686,0.571-3.418-2.854L76.098,6.746   c1.134-1.99-1.713-3.98-3.41-1.42L60.452,25.801c-1.99,3.426-5.399,0.293-3.98-1.697L68.414,3.059   c1.42-2.562-1.42-4.274-2.562-1.99L50.786,24.952c-0.571,1.142-0.571,1.713-0.285,1.99l3.98,7.113l-5.122,7.684l-5.115-7.406   c0,0,7.398-8.81-2.847-20.475C31.445,1.917,22.913-1.771,18.933,1.068c-3.132,2.268-4.266,13.361,2.276,25.874   C27.75,39.749,36.846,38.036,39.13,37.759l5.971,10.522L17.514,91.221c-2.562,3.98,0,6.819,1.704,7.668   c1.705,0.864,5.408,1.99,7.962-2.839l22.18-40.101L73.822,97.47c1.419,2.283,4.544,3.409,6.827,1.712   C81.783,98.333,85.201,95.479,82.64,91.498"/>
</g>
</svg>